<svg xmlns="http://www.w3.org/2000/svg" viewBox="0 0 800 200">
  <defs>
    <linearGradient id="bg" x1="0" y1="0" x2="1" y2="1">
      <stop offset="0%" stop-color="#0c0a09"/>
      <stop offset="100%" stop-color="#1c1917"/>
    </linearGradient>
  </defs>
  <rect width="800" height="200" rx="16" fill="url(#bg)"/>
  <g transform="translate(560, 25)">
    <rect x="10" y="10" width="140" height="95" rx="10" fill="#1a1a1a" stroke="#a78bfa" stroke-width="1" opacity=".8"/>
    <rect x="20" y="20" width="80" height="8" rx="4" fill="#a78bfa" opacity=".4"/>
    <rect x="20" y="34" width="55" height="8" rx="4" fill="#a78bfa" opacity=".25"/>
    <rect x="20" y="52" width="120" height="6" rx="3" fill="#a78bfa" opacity=".2"/>
    <rect x="20" y="62" width="100" height="6" rx="3" fill="#a78bfa" opacity=".15"/>
    <rect x="20" y="72" width="110" height="6" rx="3" fill="#a78bfa" opacity=".2"/>
    <rect x="20" y="86" width="60" height="14" rx="7" fill="#8b5cf6"/>
    <text x="50" y="96" font-size="8" font-weight="600" fill="#fff" text-anchor="middle" font-family="system-ui">Send</text>
    <circle cx="170" cy="35" r="16" fill="#1a1a1a" stroke="#60a5fa" stroke-width="1" opacity=".8"/>
    <text x="170" y="39" font-size="12" fill="#60a5fa" text-anchor="middle" font-family="system-ui">AI</text>
    <circle cx="170" cy="75" r="14" fill="#1a1a1a" stroke="#4ade80" stroke-width="1" opacity=".8"/>
    <circle cx="165" cy="75" r="5" fill="#4ade80"/>
    <rect x="173" y="71" width="12" height="3" rx="1.5" fill="#4ade80" opacity=".6"/>
    <rect x="173" y="76" width="8" height="3" rx="1.5" fill="#4ade80" opacity=".3"/>
  </g>
  <text x="50" y="78" font-size="40" font-weight="700" fill="#fff" font-family="system-ui, -apple-system, 'Segoe UI', sans-serif" letter-spacing="-.5">AI Platform</text>
  <text x="50" y="108" font-size="14" fill="#a8a29e" font-family="system-ui, -apple-system, sans-serif">Self-hosted AI chat platform with local LLM inference via Ollama</text>
  <g transform="translate(50, 128)">
    <rect width="60" height="22" rx="11" fill="#1a1a1a" stroke="#a78bfa" stroke-width=".8" opacity=".8"/>
    <text x="30" y="15" font-size="10" font-weight="500" fill="#a78bfa" text-anchor="middle" font-family="system-ui">Laravel</text>
    <rect x="70" width="48" height="22" rx="11" fill="#1a1a1a" stroke="#60a5fa" stroke-width=".8" opacity=".8"/>
    <text x="94" y="15" font-size="10" font-weight="500" fill="#60a5fa" text-anchor="middle" font-family="system-ui">Vue 3</text>
    <rect x="128" width="55" height="22" rx="11" fill="#1a1a1a" stroke="#4ade80" stroke-width=".8" opacity=".8"/>
    <text x="155.5" y="15" font-size="10" font-weight="500" fill="#4ade80" text-anchor="middle" font-family="system-ui">Ollama</text>
    <rect x="193" width="55" height="22" rx="11" fill="#1a1a1a" stroke="#fbbf24" stroke-width=".8" opacity=".8"/>
    <text x="220.5" y="15" font-size="10" font-weight="500" fill="#fbbf24" text-anchor="middle" font-family="system-ui">Docker</text>
    <rect x="258" width="70" height="22" rx="11" fill="#1a1a1a" stroke="#f87171" stroke-width=".8" opacity=".8"/>
    <text x="293" y="15" font-size="10" font-weight="500" fill="#f87171" text-anchor="middle" font-family="system-ui">pgvector</text>
    <rect x="338" width="45" height="22" rx="11" fill="#1a1a1a" stroke="#38bdf8" stroke-width=".8" opacity=".8"/>
    <text x="360.5" y="15" font-size="10" font-weight="500" fill="#38bdf8" text-anchor="middle" font-family="system-ui">PWA</text>
  </g>
</svg>
